<?xml version="1.0" encoding="utf-8"?>
<!-- Generator: Adobe Illustrator 16.0.0, SVG Export Plug-In . SVG Version: 6.00 Build 0)  -->
<!DOCTYPE svg PUBLIC "-//W3C//DTD SVG 1.1//EN" "http://www.w3.org/Graphics/SVG/1.1/DTD/svg11.dtd">
<svg version="1.1"
	 id="svg4488" xmlns:cc="http://creativecommons.org/ns#" xmlns:dc="http://purl.org/dc/elements/1.1/" xmlns:inkscape="http://www.inkscape.org/namespaces/inkscape" xmlns:rdf="http://www.w3.org/1999/02/22-rdf-syntax-ns#" xmlns:sodipodi="http://sodipodi.sourceforge.net/DTD/sodipodi-0.dtd" xmlns:svg="http://www.w3.org/2000/svg"
	 xmlns="http://www.w3.org/2000/svg" xmlns:xlink="http://www.w3.org/1999/xlink" x="0px" y="0px" width="17.5px" height="30px"
	 viewBox="9 3 17.5 30" enable-background="new 9 3 17.5 30" xml:space="preserve">
<g id="layer1" transform="translate(0,-1016.3622)">
	<path id="rect4681" fill="#999999" d="M9.92,1019.362c-0.504,0-0.92,0.423-0.92,1v28c0,0.576,0.416,1,0.92,1h15.158
		c0.504,0,0.922-0.424,0.922-1v-17.441c0.276,0,0.5-0.224,0.5-0.5c0-0.003,0-0.005,0-0.008v-0.545
		c0.004-0.276-0.219-0.502-0.494-0.506c-0.002,0-0.004,0-0.006,0v-0.918c0.276,0,0.5-0.224,0.5-0.5c0-0.003,0-0.005,0-0.008v-2.068
		c0.004-0.276-0.219-0.502-0.494-0.506c-0.002,0-0.004,0-0.006,0v-5c0-0.577-0.418-1-0.922-1H9.92z M17.471,1020.339h2.033
		c0.676-0.01,0.676,1.01,0,1h-2.033C16.794,1021.349,16.794,1020.329,17.471,1020.339z M15.738,1020.366
		c0.275,0.001,0.499,0.224,0.498,0.498c0,0.274-0.223,0.498-0.498,0.498c-0.276,0-0.5-0.223-0.5-0.498
		C15.238,1020.588,15.462,1020.365,15.738,1020.366z M10.5,1022.362h14c0.276,0,0.496,0.232,0.492,0.508l0.008-0.01v22
		c0,0.256-0.195,0.471-0.451,0.496c-0.016,0-0.032,0-0.049,0h-14h-0.008c-0.018-0.002-0.037,0-0.055-0.011
		c-0.015,0-0.029,0-0.043-0.01c-0.017,0-0.033-0.011-0.049-0.015c-0.016,0-0.032-0.011-0.047-0.018
		c-0.181-0.079-0.298-0.258-0.299-0.455v-22c0-0.276,0.224-0.5,0.5-0.5V1022.362z M11,1023.362v21h13v-21H11L11,1023.362z
		 M17.5,1046.362c0.546,0,1,0.453,1,1c0,0.546-0.454,1-1,1s-1-0.454-1-1C16.5,1046.815,16.954,1046.362,17.5,1046.362z"/>
</g>
</svg>
