<?xml version="1.0" encoding="utf-8"?>
<!-- Generator: Adobe Illustrator 16.0.0, SVG Export Plug-In . SVG Version: 6.00 Build 0)  -->
<!DOCTYPE svg PUBLIC "-//W3C//DTD SVG 1.1//EN" "http://www.w3.org/Graphics/SVG/1.1/DTD/svg11.dtd">
<svg version="1.1" id="Capa_1" xmlns="http://www.w3.org/2000/svg" xmlns:xlink="http://www.w3.org/1999/xlink" x="0px" y="0px"
	 width="512px" height="512px" viewBox="0 0 512 512" enable-background="new 0 0 512 512" xml:space="preserve">
<g>
	<path fill="#FFFFFF" d="M494.693,100.848L339.561,255.997l155.133,155.142c23.075,23.084,23.075,60.477,0,83.562
		c-11.529,11.529-26.646,17.298-41.754,17.298c-15.134,0-30.251-5.76-41.772-17.298L256.001,339.541L100.846,494.698
		c-11.528,11.529-26.646,17.299-41.767,17.299c-15.118,0-30.225-5.761-41.763-17.299c-23.075-23.073-23.075-60.468,0-83.562
		l155.128-155.141L17.307,100.848c-23.075-23.075-23.075-60.477,0-83.552c23.071-23.058,60.451-23.058,83.53,0l155.162,155.149
		l155.15-155.149c23.084-23.058,60.469-23.058,83.535,0C517.769,40.371,517.769,77.773,494.693,100.848z"/>
</g>
</svg>
