<?xml version="1.0" encoding="utf-8"?>
<!-- Generator: Adobe Illustrator 16.0.0, SVG Export Plug-In . SVG Version: 6.00 Build 0)  -->
<!DOCTYPE svg PUBLIC "-//W3C//DTD SVG 1.1//EN" "http://www.w3.org/Graphics/SVG/1.1/DTD/svg11.dtd">
<svg version="1.1" id="Layer_1" xmlns="http://www.w3.org/2000/svg" xmlns:xlink="http://www.w3.org/1999/xlink" x="0px" y="0px"
	 width="200px" height="177.815px" viewBox="0 11.092 200 177.815" enable-background="new 0 11.092 200 177.815"
	 xml:space="preserve">
<path fill="#999999" d="M200,51.813v34.62c-1.312,5.54-4.219,10.628-8.514,14.754c-6.039,5.797-14.09,8.992-22.654,8.992H114.98
	V99.64c0-4.454-3.646-8.098-8.101-8.098H93.118c-4.452,0-8.096,3.645-8.096,8.098v10.54H31.167c-8.565,0-16.613-3.195-22.655-8.992
	c-4.298-4.121-7.2-9.212-8.512-14.75V51.813C0,44.35,6.11,38.24,13.574,38.24h172.854C193.891,38.24,200,44.35,200,51.813z
	 M106.882,128.816c0.714,0,1.308-0.596,1.308-1.308v-10.542v-6.787V99.64c0-0.712-0.594-1.312-1.308-1.312H93.118
	c-0.71,0-1.312,0.6-1.312,1.312v10.54v6.787v10.542c0,0.712,0.602,1.308,1.312,1.308L106.882,128.816L106.882,128.816z
	 M196.189,106.083c-7.315,7.017-17.025,10.885-27.357,10.885H114.98v10.542c0,4.448-3.646,8.096-8.101,8.096H93.118
	c-4.452,0-8.096-3.646-8.096-8.096v-10.542H31.167c-10.33,0-20.042-3.868-27.357-10.885c-1.39-1.335-2.662-2.752-3.81-4.239v73.489
	c0,7.469,6.11,13.574,13.574,13.574h172.854c7.463,0,13.572-6.105,13.572-13.574v-73.489
	C198.85,103.331,197.583,104.748,196.189,106.083z M131.296,15.069c-2.651-2.651-6.127-3.977-9.599-3.977h-43.39
	c-3.474,0-6.951,1.325-9.601,3.977c-2.648,2.65-3.974,6.124-3.974,9.598v6.787h11.535v-6.787c0-0.385,0.105-0.948,0.6-1.44
	c0.49-0.492,1.052-0.599,1.44-0.599h43.391c0.382,0,0.946,0.106,1.437,0.599c0.494,0.492,0.6,1.056,0.6,1.44v6.787h11.535v-6.787
	C135.268,21.193,133.943,17.72,131.296,15.069z"/>
</svg>
