<?xml version="1.0" encoding="utf-8"?>
<!-- Generator: Adobe Illustrator 19.2.1, SVG Export Plug-In . SVG Version: 6.00 Build 0)  -->
<svg version="1.1" id="Layer_1" xmlns="http://www.w3.org/2000/svg" xmlns:xlink="http://www.w3.org/1999/xlink" x="0px" y="0px"
	 viewBox="0 0 200 177.8" style="enable-background:new 0 0 200 177.8;" xml:space="preserve">
<style type="text/css">
	.st0{fill:#999999;}
</style>
<path class="st0" d="M200,40.7v34.6c-1.3,5.5-4.2,10.6-8.5,14.8c-6,5.8-14.1,9-22.7,9H115V88.5c0-4.5-3.6-8.1-8.1-8.1H93.1
	c-4.5,0-8.1,3.6-8.1,8.1v10.5H31.2c-8.6,0-16.6-3.2-22.7-9C4.2,86,1.3,80.9,0,75.3V40.7c0-7.5,6.1-13.6,13.6-13.6h172.9
	C193.9,27.1,200,33.3,200,40.7z M106.9,117.7c0.7,0,1.3-0.6,1.3-1.3v-10.5v-6.8V88.5c0-0.7-0.6-1.3-1.3-1.3H93.1
	c-0.7,0-1.3,0.6-1.3,1.3v10.5v6.8v10.5c0,0.7,0.6,1.3,1.3,1.3L106.9,117.7L106.9,117.7z M196.2,95c-7.3,7-17,10.9-27.4,10.9H115
	v10.5c0,4.4-3.6,8.1-8.1,8.1H93.1c-4.5,0-8.1-3.6-8.1-8.1v-10.5H31.2c-10.3,0-20-3.9-27.4-10.9c-1.4-1.3-2.7-2.8-3.8-4.2v73.5
	c0,7.5,6.1,13.6,13.6,13.6h172.9c7.5,0,13.6-6.1,13.6-13.6V90.8C198.9,92.2,197.6,93.7,196.2,95z M131.3,4c-2.7-2.7-6.1-4-9.6-4
	H78.3c-3.5,0-7,1.3-9.6,4c-2.6,2.6-4,6.1-4,9.6v6.8h11.5v-6.8c0-0.4,0.1-0.9,0.6-1.4c0.5-0.5,1.1-0.6,1.4-0.6h43.4
	c0.4,0,0.9,0.1,1.4,0.6c0.5,0.5,0.6,1.1,0.6,1.4v6.8h11.5v-6.8C135.3,10.1,133.9,6.6,131.3,4z"/>
</svg>
