<?xml version="1.0" encoding="utf-8"?>
<!-- Generator: Adobe Illustrator 19.2.1, SVG Export Plug-In . SVG Version: 6.00 Build 0)  -->
<svg version="1.1" id="Layer_1" xmlns:sketch="http://www.bohemiancoding.com/sketch/ns"
	 xmlns="http://www.w3.org/2000/svg" xmlns:xlink="http://www.w3.org/1999/xlink" x="0px" y="0px" viewBox="0 0 22 17"
	 style="enable-background:new 0 0 22 17;" xml:space="preserve">
<style type="text/css">
	.st0{fill:#999999;}
</style>
<title></title>
<desc></desc>
<g id="miu">
	<g id="Artboard-1" transform="translate(-683.000000, -335.000000)">
		<g id="slice" transform="translate(215.000000, 119.000000)">
		</g>
		<path id="business-telephone-office-glyph" class="st0" d="M683,343.5c0.1,7.5,1,7.5,1,7.5h1v-15h-1C684,336,682.9,336,683,343.5z
			 M705,343.5c0,7.5-1.3,7.5-1.3,7.5H693v-15h10.8C703.8,336,705,336,705,343.5z M701,349c0.6,0,1-0.4,1-1s-0.4-1-1-1s-1,0.4-1,1
			S700.4,349,701,349z M698,349c0.6,0,1-0.4,1-1s-0.4-1-1-1s-1,0.4-1,1S697.4,349,698,349z M695,349c0.6,0,1-0.4,1-1s-0.4-1-1-1
			s-1,0.4-1,1S694.4,349,695,349z M701,346c0.6,0,1-0.4,1-1s-0.4-1-1-1s-1,0.4-1,1S700.4,346,701,346z M698,346c0.6,0,1-0.4,1-1
			s-0.4-1-1-1s-1,0.4-1,1S697.4,346,698,346z M695,346c0.6,0,1-0.4,1-1s-0.4-1-1-1s-1,0.4-1,1S694.4,346,695,346z M702,342
			c0-0.6-0.4-1-1-1s-1,0.4-1,1s0.4,1,1,1S702,342.6,702,342z M698,343c0.6,0,1-0.4,1-1s-0.4-1-1-1s-1,0.4-1,1S697.4,343,698,343z
			 M695,343c0.6,0,1-0.4,1-1s-0.4-1-1-1s-1,0.4-1,1S694.4,343,695,343z M694.2,338c-0.1,0-0.2,0.1-0.2,0.2v1.7
			c0,0.1,0.1,0.2,0.2,0.2h7.7c0.1,0,0.2-0.1,0.2-0.2v-1.7c0-0.1-0.1-0.2-0.2-0.2H694.2z M687.6,335c0,0-1.6,0-1.6,1.4v14.3
			c0,1.4,1.6,1.4,1.6,1.4h2.7c0,0,1.6,0,1.6-1.4v-14.3c0-1.4-1.6-1.4-1.6-1.4H687.6z"/>
	</g>
</g>
</svg>
