<?xml version="1.0" encoding="utf-8"?>
<!-- Generator: Adobe Illustrator 16.0.0, SVG Export Plug-In . SVG Version: 6.00 Build 0)  -->
<!DOCTYPE svg PUBLIC "-//W3C//DTD SVG 1.1//EN" "http://www.w3.org/Graphics/SVG/1.1/DTD/svg11.dtd">
<svg version="1.1" id="Layer_1" xmlns:sketch="http://www.bohemiancoding.com/sketch/ns"
	 xmlns="http://www.w3.org/2000/svg" xmlns:xlink="http://www.w3.org/1999/xlink" x="0px" y="0px" width="22.001px" height="17px"
	 viewBox="0.999 4 22.001 17" enable-background="new 0.999 4 22.001 17" xml:space="preserve">
<title></title>
<desc></desc>
<g id="miu">
	<g id="Artboard-1" transform="translate(-683.000000, -335.000000)">
		<g id="slice" transform="translate(215.000000, 119.000000)">
		</g>
		<path id="business-telephone-office-glyph" fill="#999999" d="M684.009,347.5C684.136,355,685,355,685,355h1v-15h-1
			C685,340,683.881,340,684.009,347.5z M706,347.5c0,7.5-1.25,7.5-1.25,7.5H694v-15h10.75C704.75,340,706,340,706,347.5z M702,353
			c0.553,0,1-0.447,1-1s-0.447-1-1-1s-1,0.447-1,1S701.447,353,702,353z M699,353c0.553,0,1-0.447,1-1s-0.447-1-1-1s-1,0.447-1,1
			S698.447,353,699,353z M696,353c0.553,0,1-0.447,1-1s-0.447-1-1-1c-0.552,0-1,0.447-1,1S695.448,353,696,353z M702,350
			c0.553,0,1-0.447,1-1s-0.447-1-1-1s-1,0.447-1,1S701.447,350,702,350z M699,350c0.553,0,1-0.447,1-1s-0.447-1-1-1s-1,0.447-1,1
			S698.447,350,699,350z M696,350c0.553,0,1-0.447,1-1s-0.447-1-1-1c-0.552,0-1,0.447-1,1S695.448,350,696,350z M703,346
			c0-0.552-0.447-1-1-1s-1,0.448-1,1s0.447,1,1,1S703,346.552,703,346z M699,347c0.553,0,1-0.448,1-1s-0.447-1-1-1s-1,0.448-1,1
			S698.447,347,699,347z M696,347c0.553,0,1-0.448,1-1s-0.447-1-1-1c-0.552,0-1,0.448-1,1S695.448,347,696,347z M695.167,342
			c-0.092,0-0.167,0.069-0.167,0.154v1.692c0,0.085,0.074,0.154,0.167,0.154h7.666c0.093,0,0.167-0.069,0.167-0.154v-1.692
			c0-0.085-0.074-0.154-0.167-0.154H695.167z M688.647,339c0,0-1.647,0-1.647,1.375v14.25c0,1.375,1.647,1.375,1.647,1.375h2.706
			c0,0,1.647,0,1.647-1.375v-14.25c0-1.375-1.647-1.375-1.647-1.375H688.647z"/>
	</g>
</g>
</svg>
