<?xml version="1.0" encoding="utf-8"?>
<!-- Generator: Adobe Illustrator 19.2.1, SVG Export Plug-In . SVG Version: 6.00 Build 0)  -->
<svg version="1.1" id="Layer_1" xmlns="http://www.w3.org/2000/svg" xmlns:xlink="http://www.w3.org/1999/xlink" x="0px" y="0px"
	 viewBox="0 0 45.5 52.1" style="enable-background:new 0 0 45.5 52.1;" xml:space="preserve">
<style type="text/css">
	.st0{fill:#999999;}
</style>
<path class="st0" d="M45,6.7c-0.3-0.3-0.7-0.5-1.2-0.5c-0.2,0-0.7,0.2-1.4,0.6C41.6,7.1,40.8,7.5,40,8c-0.8,0.5-1.8,0.9-2.9,1.2
	c-1.1,0.4-2.2,0.6-3.1,0.6c-0.9,0-1.7-0.2-2.3-0.5c-2.2-1-4.2-1.8-5.8-2.3c-1.6-0.5-3.4-0.8-5.3-0.8c-3.3,0-7,1.1-11.2,3.2
	c-0.9,0.4-1.5,0.8-1.9,1L7,7.4c0.9-0.8,1.5-1.9,1.5-3.2C8.5,1.9,6.6,0,4.2,0S0,1.9,0,4.2c0,1.5,0.8,2.9,2,3.6l5.7,42.1
	c0.2,1.3,1.2,2.2,2.5,2.2c0.1,0,0.2,0,0.3,0c1.4-0.2,2.3-1.4,2.1-2.8l-2.3-16.9c4.2-2.1,7.8-3.1,10.9-3.1c1.3,0,2.6,0.2,3.8,0.6
	c1.2,0.4,2.3,0.8,3.1,1.3c0.8,0.5,1.8,0.9,2.9,1.3c1.1,0.4,2.2,0.6,3.3,0.6c2.7,0,6-1,9.8-3.1c0.5-0.2,0.8-0.5,1-0.7
	c0.2-0.2,0.3-0.6,0.3-1V7.9C45.5,7.4,45.3,7,45,6.7z"/>
</svg>
