<?xml version="1.0" encoding="utf-8"?>
<!-- Generator: Adobe Illustrator 16.0.0, SVG Export Plug-In . SVG Version: 6.00 Build 0)  -->
<!DOCTYPE svg PUBLIC "-//W3C//DTD SVG 1.1//EN" "http://www.w3.org/Graphics/SVG/1.1/DTD/svg11.dtd">
<svg version="1.1" id="Layer_1" xmlns="http://www.w3.org/2000/svg" xmlns:xlink="http://www.w3.org/1999/xlink" x="0px" y="0px"
	 width="45.456px" height="52.11px" viewBox="9.272 5.946 45.456 52.11" enable-background="new 9.272 5.946 45.456 52.11"
	 xml:space="preserve">
<path fill="#999999" d="M54.227,12.611c-0.338-0.336-0.734-0.505-1.195-0.505c-0.229,0-0.713,0.188-1.445,0.559
	c-0.735,0.372-1.516,0.786-2.336,1.248c-0.824,0.459-1.797,0.875-2.922,1.247c-1.123,0.371-2.162,0.559-3.119,0.559
	c-0.885,0-1.664-0.168-2.336-0.505c-2.229-1.044-4.168-1.822-5.813-2.337c-1.646-0.513-3.417-0.771-5.312-0.771
	c-3.272,0-7,1.063-11.178,3.188c-0.862,0.431-1.48,0.764-1.88,1.007l-0.397-2.91c0.897-0.779,1.476-1.914,1.476-3.195
	c0-2.347-1.902-4.249-4.249-4.249s-4.249,1.902-4.249,4.249c0,1.531,0.818,2.862,2.032,3.61l5.74,42.089
	c0.171,1.254,1.243,2.162,2.474,2.162c0.112,0,0.226-0.008,0.341-0.021c1.368-0.188,2.326-1.447,2.139-2.813L19.69,38.303
	c4.186-2.076,7.807-3.123,10.854-3.123c1.293,0,2.555,0.191,3.783,0.582c1.229,0.391,2.252,0.814,3.065,1.273
	c0.813,0.46,1.774,0.886,2.881,1.274c1.106,0.39,2.199,0.584,3.278,0.584c2.726,0,5.99-1.026,9.796-3.08
	c0.479-0.248,0.827-0.491,1.049-0.73c0.222-0.237,0.332-0.579,0.332-1.021V13.806C54.729,13.347,54.562,12.948,54.227,12.611z"/>
</svg>
