<?xml version="1.0" encoding="utf-8"?>
<!-- Generator: Adobe Illustrator 16.0.0, SVG Export Plug-In . SVG Version: 6.00 Build 0)  -->
<!DOCTYPE svg PUBLIC "-//W3C//DTD SVG 1.1//EN" "http://www.w3.org/Graphics/SVG/1.1/DTD/svg11.dtd">
<svg version="1.1" id="Capa_1" xmlns="http://www.w3.org/2000/svg" xmlns:xlink="http://www.w3.org/1999/xlink" x="0px" y="0px"
	 width="512px" height="512px" viewBox="0 0 512 512" enable-background="new 0 0 512 512" xml:space="preserve">
<path fill="#FFFFFF" d="M500.854,231.986L282.907,14.039c-14.86-14.861-38.954-14.861-53.814,0L11.146,231.986
	c-10.883,10.883-14.137,27.25-8.249,41.469c5.891,14.219,19.766,23.489,35.156,23.489h29.528v162.95
	c0,27.181,22.035,49.213,49.213,49.213h278.411c27.18,0,49.214-22.033,49.214-49.213v-162.95h29.528
	c15.39,0,29.267-9.271,35.155-23.489C514.991,259.235,511.737,242.869,500.854,231.986z M313.502,437.738H198.498v-64.829
	c0-31.758,25.745-57.502,57.502-57.502s57.502,25.742,57.502,57.502V437.738z"/>
</svg>
