<?xml version="1.0" encoding="utf-8"?>
<!-- Generator: Adobe Illustrator 19.2.1, SVG Export Plug-In . SVG Version: 6.00 Build 0)  -->
<svg version="1.1" id="Layer_1" xmlns="http://www.w3.org/2000/svg" xmlns:xlink="http://www.w3.org/1999/xlink" x="0px" y="0px"
	 viewBox="0 0 436.1 436.1" style="enable-background:new 0 0 436.1 436.1;" xml:space="preserve">
<style type="text/css">
	.st0{fill:#999999;}
</style>
<path class="st0" d="M218.1,0C140.4,0,62.5,13.9,34.3,41.6C10.8,64.6,3,105.2,0.4,130.9c0,0-0.4,2.5-0.4,3.6
	c0,10.1,8.2,18.2,18.2,18.2c1.2,0,44.9-3.5,71.2-5.7c0.6-0.1,1.3-0.2,1.9-0.4c9.8-0.3,17.7-8.3,17.7-18.2l0.1-35.8
	c0-11.1,9-20,20.1-20h177.7c11.1,0,20.1,8.9,20.1,20l0.1,35.8c0,9.9,7.9,17.9,17.7,18.2c0.6,0.2,1.3,0.3,1.9,0.4
	c26.3,2.2,70,5.7,71.2,5.7c10,0,18.2-8.1,18.2-18.2c0-1.1-0.4-3.6-0.4-3.6c-2.6-25.7-10.4-66.3-33.9-89.3
	C373.6,13.9,295.7,0,218.1,0z M218.1,236.2c-20.1,0-36.3,16.3-36.3,36.3c0,20.1,16.3,36.3,36.3,36.3c20.1,0,36.3-16.3,36.3-36.3
	C254.4,252.5,238.1,236.2,218.1,236.2z M190.8,154.5v-22.7c0-12.5-10.2-22.7-22.7-22.7c-12.5,0-22.7,10.2-22.7,22.7v22.7L22.8,285.4
	c-8.4,8.3-13.7,19.8-13.7,32.5v36.4c0,20.1,16.3,36.3,36.3,36.3h9.1v22.7c0,12.5,10.2,22.7,22.7,22.7s22.7-10.2,22.7-22.7v-22.7
	h236.2v22.7c0,12.5,10.2,22.7,22.7,22.7c12.5,0,22.7-10.2,22.7-22.7v-22.7h9.1c20.1,0,36.3-16.3,36.3-36.3v-36.4
	c0-12.7-5.3-24.3-13.7-32.5L290.7,154.5v-22.7c0-12.5-10.2-22.7-22.7-22.7c-12.5,0-22.7,10.2-22.7,22.7v22.7H190.8z M218.1,199.9
	c40.2,0,72.7,32.5,72.7,72.7c0,40.2-32.5,72.7-72.7,72.7c-40.2,0-72.7-32.5-72.7-72.7C145.4,232.4,177.9,199.9,218.1,199.9z"/>
</svg>
