<?xml version="1.0" encoding="utf-8"?>
<!-- Generator: Adobe Illustrator 16.0.0, SVG Export Plug-In . SVG Version: 6.00 Build 0)  -->
<!DOCTYPE svg PUBLIC "-//W3C//DTD SVG 1.1//EN" "http://www.w3.org/Graphics/SVG/1.1/DTD/svg11.dtd">
<svg version="1.1" id="Layer_1" xmlns="http://www.w3.org/2000/svg" xmlns:xlink="http://www.w3.org/1999/xlink" x="0px" y="0px"
	 width="436.103px" height="436.102px" viewBox="31.95 31.949 436.103 436.102"
	 enable-background="new 31.95 31.949 436.103 436.102" xml:space="preserve">
<path fill="#999999" d="M250,31.949c-77.68,0-155.545,13.902-183.798,41.611c-23.441,22.988-31.255,63.599-33.889,89.312
	c0,0-0.363,2.541-0.363,3.634c0,10.083,8.175,18.17,18.17,18.17c1.181,0,44.882-3.544,71.229-5.724
	c0.634-0.092,1.273-0.182,1.907-0.363c9.813-0.271,17.719-8.268,17.719-18.17l0.088-35.798c0-11.084,8.998-19.989,20.083-19.989
	h177.706c11.09,0,20.088,8.904,20.088,19.989l0.09,35.798c0,9.902,7.902,17.899,17.717,18.17c0.629,0.182,1.268,0.271,1.91,0.363
	c26.348,2.179,70.049,5.724,71.225,5.724c9.992,0,18.172-8.087,18.172-18.17c0-1.093-0.361-3.634-0.361-3.634
	c-2.637-25.713-10.441-66.323-33.885-89.312C405.545,45.851,327.678,31.949,250,31.949z M250,268.172
	c-20.08,0-36.342,16.262-36.342,36.342c0,20.078,16.262,36.34,36.342,36.34c20.078,0,36.34-16.262,36.34-36.34
	C286.34,284.434,270.079,268.172,250,268.172z M222.745,186.401v-22.713c0-12.537-10.178-22.713-22.713-22.713
	c-12.536,0-22.713,10.177-22.713,22.713v22.713L54.75,317.324c-8.446,8.269-13.717,19.804-13.717,32.527v36.433
	c0,20.079,16.264,36.34,36.342,36.34h9.086v22.716c0,12.536,10.178,22.711,22.714,22.711c12.536,0,22.713-10.175,22.713-22.711
	v-22.716h236.224v22.716c0,12.536,10.174,22.711,22.715,22.711c12.537,0,22.711-10.175,22.711-22.711v-22.716h9.086
	c20.08,0,36.342-16.261,36.342-36.34v-36.433c0-12.726-5.27-24.261-13.717-32.527L322.684,186.401v-22.713
	c0-12.537-10.178-22.713-22.713-22.713c-12.537,0-22.713,10.177-22.713,22.713v22.713H222.745z M250,231.83
	c40.158,0,72.684,32.525,72.684,72.684c0,40.157-32.523,72.687-72.684,72.687c-40.159,0-72.684-32.527-72.684-72.687
	C177.317,264.355,209.842,231.83,250,231.83z"/>
</svg>
