<?xml version="1.0" encoding="utf-8"?>
<!-- Generator: Adobe Illustrator 16.0.0, SVG Export Plug-In . SVG Version: 6.00 Build 0)  -->
<!DOCTYPE svg PUBLIC "-//W3C//DTD SVG 1.1//EN" "http://www.w3.org/Graphics/SVG/1.1/DTD/svg11.dtd">
<svg version="1.1" id="Layer_1" xmlns="http://www.w3.org/2000/svg" xmlns:xlink="http://www.w3.org/1999/xlink" x="0px" y="0px"
	 width="268.401px" height="448px" viewBox="121.8 32 268.401 448" enable-background="new 121.8 32 268.401 448"
	 xml:space="preserve">
<g>
	<path fill="#999999" d="M256,32c-74,0-134.2,58.7-134.2,132.7c0,16.4,3.5,34.3,9.801,50.4H131.5l0.601,1.2c0.5,1.1,1,2.2,1.5,3.3
		L256,480l121.8-259.1l0.602-1.2c0.5-1.1,1.1-2.2,1.6-3.4l0.4-1.1c6.5-16.1,9.8-33.1,9.8-50.3C390.2,90.7,330,32,256,32z M256,206.9
		c-25.899,0-46.899-21-46.899-46.9s21-46.9,46.899-46.9c25.9,0,46.9,21,46.9,46.9S281.9,206.9,256,206.9z"/>
</g>
</svg>
