<?xml version="1.0" encoding="utf-8"?>
<!-- Generator: Adobe Illustrator 16.0.0, SVG Export Plug-In . SVG Version: 6.00 Build 0)  -->
<!DOCTYPE svg PUBLIC "-//W3C//DTD SVG 1.1//EN" "http://www.w3.org/Graphics/SVG/1.1/DTD/svg11.dtd">
<svg version="1.1" id="Layer_1" xmlns="http://www.w3.org/2000/svg" xmlns:xlink="http://www.w3.org/1999/xlink" x="0px" y="0px"
	 width="77.796px" height="81px" viewBox="14 11 77.796 81" enable-background="new 14 11 77.796 81" xml:space="preserve">
<g>
	<rect x="34" y="41" fill="#999999" width="28" height="2"/>
	<circle fill="#999999" cx="28.202" cy="42" r="2"/>
	<rect x="34" y="51" fill="#999999" width="28" height="2"/>
	<circle fill="#999999" cx="28.202" cy="52" r="2"/>
	<circle fill="#999999" cx="28.202" cy="62" r="2"/>
	<rect x="34" y="71" fill="#999999" width="16" height="2"/>
	<circle fill="#999999" cx="28.202" cy="72" r="2"/>
	<path fill="#999999" d="M91.796,36.109l-2.828-2.828l-1.768,1.768l-0.707-0.707l-2.756,2.651L74,46.63V30
		c0-6.617-5.18-12-11.795-12H61v-1c0-1.1-0.694-2-1.795-2h-11c0-2.209-1.791-4-4-4s-4,1.791-4,4h-11C28.104,15,27,15.9,27,17v1
		h-0.796C19.587,18,14,23.383,14,30v50c0,6.617,5.587,12,12.204,12h36C68.82,92,74,86.617,74,80V55.114L87.098,42h0.051l3.562-3.476
		l-0.694-0.678L91.796,36.109z M44.205,13c1.104,0,2,0.896,2,2s-0.896,2-2,2c-1.104,0-2-0.896-2-2S43.1,13,44.205,13z M70,80
		c0,4.411-3.385,8-7.795,8h-36C21.793,88,18,84.411,18,80V30c0-4.411,3.793-8,8.204-8h1l-1,4c0,1.1,0.9,2,2,2h32c1.101,0,2-0.9,2-2
		l-1-4h1C66.615,22,70,25.589,70,30v20.63L59.835,61H34v2h23.835l-2.278,2.277l-1.769,3.89l0,0l-1.77,3.89l7.678-3.537L70,59.114V80
		z M58.232,69.369l-2.916,1.326l-0.936-0.937l1.326-2.917l2.323,2.323L58.232,69.369z M87.376,40.528L84.548,37.7l1.793-1.793
		l-0.2,0.202l2.825,2.827l0.354-0.354l0.003,0.001L87.376,40.528z"/>
</g>
</svg>
