<?xml version="1.0" encoding="utf-8"?>
<!-- Generator: Adobe Illustrator 19.2.1, SVG Export Plug-In . SVG Version: 6.00 Build 0)  -->
<svg version="1.1" id="Layer_1" xmlns="http://www.w3.org/2000/svg" xmlns:xlink="http://www.w3.org/1999/xlink" x="0px" y="0px"
	 viewBox="0 0 77.8 81" style="enable-background:new 0 0 77.8 81;" xml:space="preserve">
<style type="text/css">
	.st0{fill:#999999;}
</style>
<g>
	<rect x="20" y="30" class="st0" width="28" height="2"/>
	<circle class="st0" cx="14.2" cy="31" r="2"/>
	<rect x="20" y="40" class="st0" width="28" height="2"/>
	<circle class="st0" cx="14.2" cy="41" r="2"/>
	<circle class="st0" cx="14.2" cy="51" r="2"/>
	<rect x="20" y="60" class="st0" width="16" height="2"/>
	<circle class="st0" cx="14.2" cy="61" r="2"/>
	<path class="st0" d="M77.8,25.1L75,22.3L73.2,24l-0.7-0.7L69.7,26L60,35.6V19c0-6.6-5.2-12-11.8-12H47V6c0-1.1-0.7-2-1.8-2h-11
		c0-2.2-1.8-4-4-4s-4,1.8-4,4h-11C14.1,4,13,4.9,13,6v1h-0.8C5.6,7,0,12.4,0,19v50c0,6.6,5.6,12,12.2,12h36C54.8,81,60,75.6,60,69
		V44.1L73.1,31h0.1l3.6-3.5L76,26.8L77.8,25.1z M30.2,2c1.1,0,2,0.9,2,2s-0.9,2-2,2s-2-0.9-2-2S29.1,2,30.2,2z M56,69
		c0,4.4-3.4,8-7.8,8h-36C7.8,77,4,73.4,4,69V19c0-4.4,3.8-8,8.2-8h1l-1,4c0,1.1,0.9,2,2,2h32c1.1,0,2-0.9,2-2l-1-4h1
		c4.4,0,7.8,3.6,7.8,8v20.6L45.8,50H20v2h23.8l-2.3,2.3l-1.8,3.9l0,0L38,62.1l7.7-3.5L56,48.1V69z M44.2,58.4l-2.9,1.3l-0.9-0.9
		l1.3-2.9l2.3,2.3L44.2,58.4z M73.4,29.5l-2.8-2.8l1.8-1.8l-0.2,0.2l2.8,2.8l0.4-0.4l0,0L73.4,29.5z"/>
</g>
</svg>
