<?xml version="1.0" encoding="utf-8"?>
<!-- Generator: Adobe Illustrator 19.2.1, SVG Export Plug-In . SVG Version: 6.00 Build 0)  -->
<svg version="1.1" id="Layer_1" xmlns="http://www.w3.org/2000/svg" xmlns:xlink="http://www.w3.org/1999/xlink" x="0px" y="0px"
	 viewBox="0 0 328 309.2" style="enable-background:new 0 0 328 309.2;" xml:space="preserve">
<style type="text/css">
	.st0{fill:#999999;}
</style>
<g id="Layer_1_1_">
</g>
<g id="Layer_3">
	<path class="st0" d="M284.9,0H43.1C19.3,0,0,21.6,0,48.4v121.6C0,196.9,19.3,219,43.1,219h196.5l40.9,90.2l-0.3-90.2h4.6
		c23.8,0,43.1-22.1,43.1-48.9V48.4C328,21.6,308.7,0,284.9,0z M53,50h222v20H53V50z M53,102h222v21H53V102z M53,154h222v19H53V154z"
		/>
	<rect x="61" y="146" class="st0" width="206" height="16"/>
	<rect x="61" y="146" class="st0" width="206" height="16"/>
</g>
</svg>
