<?xml version="1.0" encoding="utf-8"?>
<!-- Generator: Adobe Illustrator 16.0.0, SVG Export Plug-In . SVG Version: 6.00 Build 0)  -->
<!DOCTYPE svg PUBLIC "-//W3C//DTD SVG 1.1//EN" "http://www.w3.org/Graphics/SVG/1.1/DTD/svg11.dtd">
<svg version="1.1" id="Layer_1" xmlns="http://www.w3.org/2000/svg" xmlns:xlink="http://www.w3.org/1999/xlink" x="0px" y="0px"
	 width="328px" height="309.17px" viewBox="92 125 328 309.17" enable-background="new 92 125 328 309.17" xml:space="preserve">
<g id="Layer_1_1_">
</g>
<g id="Layer_3">
	<path fill="#999999" d="M376.858,125H135.141C111.304,125,92,146.556,92,173.425v121.64C92,321.934,111.304,344,135.141,344
		h196.515l40.854,90.17L372.23,344h4.629C400.696,344,420,321.934,420,295.064v-121.64C420,146.556,400.696,125,376.858,125z
		 M145,175h222v20H145V175z M145,227h222v21H145V227z M145,279h222v19H145V279z"/>
	<rect x="153" y="271" fill="#999999" width="206" height="16"/>
	<rect x="153" y="271" fill="#999999" width="206" height="16"/>
</g>
</svg>
