<?xml version="1.0" encoding="utf-8"?>
<!-- Generator: Adobe Illustrator 19.2.1, SVG Export Plug-In . SVG Version: 6.00 Build 0)  -->
<svg version="1.1"
	 id="Layer_1" xmlns:cc="http://creativecommons.org/ns#" xmlns:dc="http://purl.org/dc/elements/1.1/" xmlns:rdf="http://www.w3.org/1999/02/22-rdf-syntax-ns#"
	 xmlns="http://www.w3.org/2000/svg" xmlns:xlink="http://www.w3.org/1999/xlink" x="0px" y="0px" viewBox="0 0 17.9 20"
	 style="enable-background:new 0 0 17.9 20;" xml:space="preserve">
<style type="text/css">
	.st0{fill:#999999;}
</style>
<g transform="translate(0 -1028.4)">
	<path class="st0" d="M5.3,1039.1c-2.9,1.3-5,4-5.3,7.3c0,1.1,0.8,2,1.9,2h14c1.1,0,1.9-0.9,1.9-2c-0.4-3.3-2.5-6-5.3-7.3
		c-0.6,1.3-2,2.3-3.6,2.3S6,1040.4,5.3,1039.1z"/>
	<path class="st0" d="M13.9,1033.4c0,2.8-2.2,5-5,5c-2.8,0-5-2.2-5-5s2.2-5,5-5C11.7,1028.4,13.9,1030.6,13.9,1033.4z"/>
	<path class="st0" d="M8.9,1037.4c-1.3,0-2.5,0.3-3.6,0.8c-2.9,1.3-5,4-5.3,7.3c0,1.1,0.8,2,1.9,2h14c1.1,0,1.9-0.9,1.9-2
		c-0.4-3.3-2.5-6-5.3-7.3C11.4,1037.7,10.2,1037.4,8.9,1037.4z"/>
</g>
</svg>
