<svg id="katman_1" viewBox="0 0 491.9 512"><style>.st0{fill:#e8e8e8}</style><path class="st0" d="M69.5 106.7c5.7 4.3 13.8 3.2 18.1-2.4 38-49.9 95.8-78.4 158.3-78.4s120.3 28.6 158.3 78.4c2.5 3.3 6.4 5.1 10.3 5.1 2.7 0 5.5-.9 7.8-2.6 5.7-4.3 6.7-12.4 2.4-18.1C381.8 32.3 316.6 0 245.9 0S110.1 32.3 67.1 88.6c-4.3 5.6-3.2 13.7 2.4 18.1zM383 175.5c0 22.2 18.1 40.3 40.3 40.3 22.2 0 40.3-18.1 40.3-40.3s-18.1-40.3-40.3-40.3c-22.2 0-40.3 18.1-40.3 40.3zM464.6 229.1c-.1 0-10.2-3.1-10.2-3.1-3.7-1.1-7.7-.4-10.7 1.9L423.3 243l-20.2-15.2c-3.1-2.3-7.1-3-10.7-1.9l-10.2 3.1c-16.3 5.4-27.3 20.7-27.3 37.9v60.9c0 2.3.7 4.6 2 6.6l20.4 31.1v81.6c0 6.6 5.4 12 12 12h68.2c6.6 0 12-5.4 12-12v-81.6l20.4-31.1c1.3-2 2-4.3 2-6.6V267c0-17.2-11-32.4-27.3-37.9zM68.5 215.8c22.2 0 40.3-18.1 40.3-40.3s-18.1-40.3-40.3-40.3-40.3 18.1-40.3 40.3 18.1 40.3 40.3 40.3zM109.8 229.1c-.1 0-10.2-3.1-10.2-3.1-3.7-1.1-7.7-.4-10.7 1.9L68.5 243l-20.2-15.2c-3.1-2.3-7.1-3-10.7-1.9L27.4 229C11 234.6 0 249.8 0 267v60.9c0 2.3.7 4.6 2 6.6l20.4 31.1v81.6c0 6.6 5.4 12 12 12h68.2c6.6 0 12-5.4 12-12v-81.6l20.4-31.1c1.3-2 2-4.3 2-6.6V267c.1-17.2-10.9-32.4-27.2-37.9z"/><path class="st0" d="M297.9 118.7c0-28.7-23.3-52-52-52s-52 23.3-52 52 23.3 52 52 52 52-23.4 52-52zM303 195.8l-14.9-4.6c-2.3-.7-4.8.5-5.7 2.8l-31.2 85.6c-1.8 4.9-8.8 4.9-10.6 0L209.4 194c-.7-1.9-2.4-3-4.3-3-.4 0-16.2 4.7-16.2 4.7-18.9 6.3-31.6 23.9-31.6 43.7v90.5c0 .9.3 1.8.8 2.5l32.5 49.5v125.3c0 2.5 2.1 4.6 4.6 4.6h101.3c2.5 0 4.6-2.1 4.6-4.6V382.1l32.5-49.5c.5-.8.8-1.6.8-2.5v-90.8c.1-19.8-12.6-37.3-31.4-43.5z"/><path class="st0" d="M258.1 194c-1.3-1.4-3.2-2.1-5.1-2.1h-14.2c-1.9 0-3.8.7-5.1 2.1-2 2.2-2.3 5.3-.9 7.8l7.6 11.5-3.6 30 7 18.6c.7 1.9 3.3 1.9 4 0l7-18.6-3.6-30 7.6-11.5c1.6-2.5 1.3-5.6-.7-7.8z"/></svg>