<svg width="512" height="512"><path d="M120 0C95.186 0 75 21.186 75 46s20.186 45 45 45 45-20.186 45-45-20.186-46-45-46z" fill="#e8e8e8"/><path d="M240 212c16.538 0 30-13.462 30-30s-13.462-30-30-30h-86.455l-21.709-44.418C117.583 79.076 75 92.106 75 122v150.835c0 10.21 7.676 23.335 20.508 27.627l75.762 25.269 25.283 75.776c5.178 15.61 22.073 24.269 37.939 18.955 15.606-5.211 24.219-22.147 18.97-37.954l-30-90c-2.974-8.906-10.063-15.996-18.97-18.97L135 250.379V212h105z" fill="#e8e8e8"/><path d="M507.606 246.395l-29.982-29.982c-5.852-5.867-15.419-5.843-21.248 0l-29.982 29.982c-5.859 5.859-5.859 15.352 0 21.211s15.352 5.859 21.211 0l4.395-4.395V362H315c-8.291 0-15 6.709-15 15v45H165c-8.291 0-15 6.709-15 15v45H15c-8.291 0-15 6.709-15 15s6.709 15 15 15h150c8.291 0 15-6.709 15-15v-45h135c8.291 0 15-6.709 15-15v-45h137c8.291 0 15-6.709 15-15V263.211l4.395 4.395c5.859 5.859 15.352 5.859 21.211 0 5.859-5.859 5.859-15.352 0-21.211z" fill="#e8e8e8"/><path d="M86.015 328.923c-7.13-2.386-13.365-6.489-19.03-11.29L45.41 447.078c-2.677 15.978 8.038 31.727 24.712 34.526 16.126 2.736 31.712-8.117 34.468-24.668l19.233-115.404-37.808-12.609zM8.789 160.789c-11.689 11.689-11.689 30.732 0 42.422L45 239.411V124.578L8.789 160.789z" fill="#e8e8e8"/></svg>