<svg id="Layer_1" viewBox="0 0 512 341.3"><style>.st0{fill:#f0f0f0}.st1{fill:#0052b4}.st2{fill:#d80027}</style><g id="XMLID_1514_"><path id="XMLID_1734_" class="st0" d="M0 0h512v341.3H0z"/><path id="XMLID_1516_" class="st0" d="M.1 178v-1.5 1.5z"/><path id="XMLID_1517_" class="st0" d="M.4 184.9c0-.5-.1-.9-.1-1.4 0 .5.1.9.1 1.4z"/><path id="XMLID_1518_" class="st0" d="M.1 164.8v-1.5 1.5z"/><path id="XMLID_1519_" class="st0" d="M446.8 341.3c.5-.6 1.1-1.2 1.6-1.8-.5.6-1.1 1.2-1.6 1.8z"/><path id="XMLID_1520_" class="st0" d="M.3 157.8c0-.5.1-.9.1-1.4 0 .5-.1 1-.1 1.4z"/><path id="XMLID_1521_" class="st0" d="M1.5 198.5c-.1-.8-.2-1.7-.3-2.5.1.9.2 1.7.3 2.5z"/><path id="XMLID_1522_" class="st0" d="M.8 191.2c-.1-.7-.1-1.4-.2-2.1.1.7.2 1.4.2 2.1z"/><path id="XMLID_1523_" class="st0" d="M510.5 142.8c.1.8.2 1.7.3 2.5-.1-.8-.2-1.7-.3-2.5z"/><path id="XMLID_1524_" class="st0" d="M511.6 156.4c0 .5.1.9.1 1.4 0-.4-.1-.9-.1-1.4z"/><path id="XMLID_1526_" class="st0" d="M511.2 150.1c.1.7.1 1.4.2 2.1-.1-.7-.2-1.4-.2-2.1z"/><path id="XMLID_1527_" class="st0" d="M510.8 196c-.1.8-.2 1.7-.3 2.5.1-.8.2-1.6.3-2.5z"/><path id="XMLID_1528_" class="st0" d="M.7 152.2c.1-.7.1-1.4.2-2.1-.1.7-.2 1.4-.2 2.1z"/><path id="XMLID_1529_" class="st0" d="M1.2 145.3c.1-.8.2-1.7.3-2.5-.1.8-.2 1.7-.3 2.5z"/><path id="XMLID_1530_" class="st0" d="M511.9 164.8v-1.5 1.5z"/><path id="XMLID_1532_" class="st0" d="M511.9 176.5v0z"/><path id="XMLID_1533_" class="st0" d="M289.4 204.1v137.3h33.4v-56.7l56.7 56.7h47.2L322.8 237.5h31.5l97.8 97.8-3.6 4.2c3.7-4.2 7.2-8.5 10.6-13L370 237.4h133.2c3.1-11.7 5.5-23.7 7-36-.1.9-.2 1.7-.3 2.6l-220.5.1z"/><path id="XMLID_1534_" class="st0" d="M511.7 183.5c0 .5-.1.9-.1 1.4 0-.5.1-.9.1-1.4z"/><path id="XMLID_1535_" class="st0" d="M511.3 189.1c-.1.7-.1 1.4-.2 2.1.1-.7.2-1.4.2-2.1z"/><path id="XMLID_1536_" class="st1" d="M52.9 14.8L38.1 0H0v103.9h142z"/><path id="XMLID_1537_" class="st1" d="M503.2 103.9h8.8V0h-38.1l-14.8 14.8-89.1 89.1z"/><path id="XMLID_1538_" class="st1" d="M8.8 237.4H0v103.9h38.1l14.8-14.8 89.1-89.1z"/><path id="XMLID_1539_" class="st1" d="M379.4 0h-56.6v56.7z"/><path id="XMLID_1540_" class="st1" d="M132.6 341.3h56.6v-56.6z"/><path id="XMLID_1541_" class="st1" d="M189.2 0h-56.6l56.6 56.7z"/><path id="XMLID_1542_" class="st1" d="M322.8 341.3h56.6l-56.6-56.6z"/><path id="XMLID_1543_" class="st1" d="M459.1 326.5l14.8 14.8H512V237.4H370z"/><path id="XMLID_1544_" class="st2" d="M511.7 157.8c0-.5-.1-.9-.1-1.4l-.3-4.2c-.1-.7-.1-1.4-.2-2.1-.1-1.6-.3-3.2-.4-4.8-.1-.8-.2-1.7-.3-2.5l-.3-3c-.1-.9-.2-1.7-.3-2.6H289.4V0h-66.8v137.3H2.2c-.1.9-.2 1.7-.3 2.6l-.3 3c-.1.8-.2 1.7-.3 2.5-.2 1.6-.3 3.2-.4 4.8-.1.7-.1 1.4-.2 2.1l-.3 4.2c0 .5-.1.9-.1 1.4-.1 1.8-.2 3.7-.2 5.5v1.5c0 1.9-.1 3.9-.1 5.8s0 3.9.1 5.8v1.5c.1 1.8.1 3.7.2 5.5 0 .5.1.9.1 1.4l.3 4.2c.1.7.1 1.4.2 2.1.1 1.6.3 3.2.4 4.8.1.8.2 1.7.3 2.5l.3 3c.1.9.2 1.7.3 2.6h220.4v137.3h66.8V204.1h220.4c.1-.9.2-1.7.3-2.6l.3-3c.1-.8.2-1.7.3-2.5.2-1.6.3-3.2.4-4.8.1-.7.1-1.4.2-2.1l.3-4.2c0-.5.1-.9.1-1.4.1-1.8.2-3.7.2-5.5v-1.5c0-1.9.1-3.9.1-5.8s0-3.9-.1-5.8v-1.5c-.1-1.9-.1-3.7-.2-5.6z"/><path id="XMLID_1545_" class="st2" d="M354.3 237.4h-31.5l103.9 103.9h20.1c.5-.6 1.1-1.2 1.6-1.8l3.6-4.2-97.7-97.9z"/><path id="XMLID_1546_" class="st2" d="M189.2 237.4L85.3 341.3h31.5l72.4-72.4z"/><path id="XMLID_1547_" class="st2" d="M189.2 103.9L85.3 0H53.9l6 6.1 97.8 97.8z"/><path id="XMLID_1548_" class="st2" d="M322.8 103.9L426.7 0h-31.5l-72.4 72.4z"/></g></svg>