<svg id="Capa_1" viewBox="0 0 512 400.4"><style>.st0{fill:#e8e8e8}</style><path class="st0" d="M138.1 388.9c15.4 15.4 40.3 15.4 55.6 0l190.4-190.4c5.5-5.5 9.7-12 12.4-18.9 19.1 5.4 37.7 8.2 54.1 8.1 40.6-.2 54-18 58.5-28.6 4.4-10.5 7.6-32.6-20.9-61.6l-.9-.9c-17.7-17.7-43.3-34-72.4-46.1-5.4-2.2-10.7-4.2-16-6.1v-.3c-.3-23.3-19.1-42.2-42.5-42.5L242.3 0c-15.1-.2-29.6 5.7-40.3 16.4L11.5 206.8c-15.4 15.4-15.4 40.3 0 55.6l126.6 126.5zM284.9 68.1c12.7-12.7 33.3-12.7 46.1 0 7.6 7.6 10.6 18 9.1 27.8 12.5 8.8 27.4 17 43.4 23.7 5.7 2.3 11.1 4.4 16.4 6.2l-.6-45.8c.9.4 1.8.7 2.7 1.2 24.9 10.4 47.3 24.5 61.7 38.9l.6.6c13.7 14 15.1 22.9 14 25.7-3.6 8.5-41.9 16.1-100.2-8.2-17-7.1-33-16-45.9-25.5-.4.5-.9 1.1-1.4 1.6-12.7 12.7-33.3 12.7-46.1 0-12.6-12.8-12.6-33.4.2-46.2z"/></svg>