<svg id="Layer_1" viewBox="0 0 512 341.3"><style>.st0{fill:#d80027}.st1{fill:#f0f0f0}</style><path id="XMLID_1495_" class="st0" d="M0 0h512v341.3H0z"/><g id="XMLID_942_"><path id="XMLID_1940_" class="st1" d="M321.3 111.3l23 31.7 37.3-12.1-23.1 31.7 23 31.7-37.2-12.1-23.1 31.7v-39.2L284 162.6l37.3-12.1z"/><path id="XMLID_944_" class="st1" d="M258.5 241.8c-43.8 0-79.3-35.5-79.3-79.3s35.5-79.3 79.3-79.3c13.6 0 26.5 3.5 37.7 9.5C278.6 75.7 254.5 65 228 65c-53.9 0-97.6 43.7-97.6 97.6s43.7 97.6 97.6 97.6c26.5 0 50.6-10.6 68.2-27.8-11.2 6-24.1 9.4-37.7 9.4z"/></g></svg>