<svg id="Capa_1" viewBox="0 0 512.1 416"><style>.st0{fill:#e8e8e8}</style><path class="st0" d="M512.1 49.2c-18.8 8.4-39.1 14-60.3 16.5 21.7-13 38.3-33.6 46.2-58.1-20.3 12-42.8 20.8-66.7 25.5C412.1 12.7 384.8 0 354.6 0c-58 0-105 47-105 105 0 8.2.9 16.3 2.7 23.9C165 124.5 87.6 82.7 35.8 19.1c-9 15.5-14.2 33.6-14.2 52.8 0 36.4 18.5 68.6 46.7 87.4-17.2-.5-33.4-5.3-47.6-13.1v1.3c0 50.9 36.2 93.3 84.3 103-8.8 2.4-18.1 3.7-27.7 3.7-6.8 0-13.3-.7-19.8-1.9 13.4 41.7 52.2 72.1 98.1 72.9-35.9 28.2-81.2 45-130.5 45-8.5 0-16.8-.5-25.1-1.5 46.6 30 101.8 47.3 161.1 47.3C354.3 416 460 255.9 460 117.1c0-4.6-.1-9.1-.3-13.6 20.5-14.7 38.3-33.2 52.4-54.3z"/></svg>