<?xml version="1.0" encoding="utf-8"?>
<!-- Generator: Adobe Illustrator 21.1.0, SVG Export Plug-In . SVG Version: 6.00 Build 0)  -->
<svg version="1.1" id="Layer_1" xmlns="http://www.w3.org/2000/svg" xmlns:xlink="http://www.w3.org/1999/xlink" x="0px" y="0px"
	 viewBox="0 0 512 341.3" style="enable-background:new 0 0 512 341.3;" xml:space="preserve">
<style type="text/css">
	.st0{fill:#F0F0F0;}
	.st1{fill:#0052B4;}
	.st2{fill:#D80027;}
</style>
<g id="XMLID_1514_">
	<rect id="XMLID_1734_" class="st0" width="512" height="341.3"/>
	<path id="XMLID_1516_" class="st0" d="M0.1,178c0-0.5,0-1,0-1.5C0.1,177,0.1,177.5,0.1,178z"/>
	<path id="XMLID_1517_" class="st0" d="M0.4,184.9c0-0.5-0.1-0.9-0.1-1.4C0.3,184,0.4,184.4,0.4,184.9z"/>
	<path id="XMLID_1518_" class="st0" d="M0.1,164.8c0-0.5,0-1,0-1.5C0.1,163.9,0.1,164.3,0.1,164.8z"/>
	<path id="XMLID_1519_" class="st0" d="M446.8,341.3c0.5-0.6,1.1-1.2,1.6-1.8C447.9,340.1,447.3,340.7,446.8,341.3L446.8,341.3z"/>
	<path id="XMLID_1520_" class="st0" d="M0.3,157.8c0-0.5,0.1-0.9,0.1-1.4C0.4,156.9,0.3,157.4,0.3,157.8z"/>
	<path id="XMLID_1521_" class="st0" d="M1.5,198.5c-0.1-0.8-0.2-1.7-0.3-2.5C1.3,196.9,1.4,197.7,1.5,198.5z"/>
	<path id="XMLID_1522_" class="st0" d="M0.8,191.2c-0.1-0.7-0.1-1.4-0.2-2.1C0.7,189.8,0.8,190.5,0.8,191.2z"/>
	<path id="XMLID_1523_" class="st0" d="M510.5,142.8c0.1,0.8,0.2,1.7,0.3,2.5C510.7,144.5,510.6,143.6,510.5,142.8z"/>
	<path id="XMLID_1524_" class="st0" d="M511.6,156.4c0,0.5,0.1,0.9,0.1,1.4C511.7,157.4,511.6,156.9,511.6,156.4z"/>
	<path id="XMLID_1526_" class="st0" d="M511.2,150.1c0.1,0.7,0.1,1.4,0.2,2.1C511.3,151.5,511.2,150.8,511.2,150.1z"/>
	<path id="XMLID_1527_" class="st0" d="M510.8,196c-0.1,0.8-0.2,1.7-0.3,2.5C510.6,197.7,510.7,196.9,510.8,196z"/>
	<path id="XMLID_1528_" class="st0" d="M0.7,152.2c0.1-0.7,0.1-1.4,0.2-2.1C0.8,150.8,0.7,151.5,0.7,152.2z"/>
	<path id="XMLID_1529_" class="st0" d="M1.2,145.3c0.1-0.8,0.2-1.7,0.3-2.5C1.4,143.6,1.3,144.5,1.2,145.3z"/>
	<path id="XMLID_1530_" class="st0" d="M511.9,164.8c0-0.5,0-1,0-1.5C511.9,163.9,511.9,164.3,511.9,164.8z"/>
	<path id="XMLID_1532_" class="st0" d="M511.9,176.5c0,0.5,0,1,0,1.5C511.9,177.5,511.9,177,511.9,176.5z"/>
	<path id="XMLID_1533_" class="st0" d="M289.4,204.1L289.4,204.1v137.3h33.4v-56.7l56.7,56.7h47.2L322.8,237.5l0,0h31.5l97.8,97.8
		c-1.2,1.4-2.4,2.8-3.6,4.2c3.7-4.2,7.2-8.5,10.6-13L370,237.4h133.2c3.1-11.7,5.5-23.7,7-36c-0.1,0.9-0.2,1.7-0.3,2.6L289.4,204.1
		L289.4,204.1z"/>
	<path id="XMLID_1534_" class="st0" d="M511.7,183.5c0,0.5-0.1,0.9-0.1,1.4C511.6,184.4,511.7,184,511.7,183.5z"/>
	<path id="XMLID_1535_" class="st0" d="M511.3,189.1c-0.1,0.7-0.1,1.4-0.2,2.1C511.2,190.5,511.3,189.8,511.3,189.1z"/>
	<polygon id="XMLID_1536_" class="st1" points="52.9,14.8 38.1,0 0,0 0,103.9 8.8,103.9 142,103.9 	"/>
	<polygon id="XMLID_1537_" class="st1" points="503.2,103.9 512,103.9 512,0 473.9,0 459.1,14.8 370,103.9 	"/>
	<polygon id="XMLID_1538_" class="st1" points="8.8,237.4 0,237.4 0,341.3 38.1,341.3 52.9,326.5 142,237.4 	"/>
	<polygon id="XMLID_1539_" class="st1" points="379.4,0 322.8,0 322.8,56.7 	"/>
	<polygon id="XMLID_1540_" class="st1" points="132.6,341.3 189.2,341.3 189.2,284.7 	"/>
	<polygon id="XMLID_1541_" class="st1" points="189.2,0 132.6,0 189.2,56.7 	"/>
	<polygon id="XMLID_1542_" class="st1" points="322.8,341.3 379.4,341.3 322.8,284.7 	"/>
	<polygon id="XMLID_1543_" class="st1" points="459.1,326.5 473.9,341.3 512,341.3 512,237.4 503.2,237.4 370,237.4 	"/>
	<path id="XMLID_1544_" class="st2" d="M511.7,157.8c0-0.5-0.1-0.9-0.1-1.4c-0.1-1.4-0.2-2.8-0.3-4.2c-0.1-0.7-0.1-1.4-0.2-2.1
		c-0.1-1.6-0.3-3.2-0.4-4.8c-0.1-0.8-0.2-1.7-0.3-2.5c-0.1-1-0.2-2-0.3-3c-0.1-0.9-0.2-1.7-0.3-2.6H289.4h0V0h-66.8v137.3v0H2.2
		c-0.1,0.9-0.2,1.7-0.3,2.6c-0.1,1-0.2,2-0.3,3c-0.1,0.8-0.2,1.7-0.3,2.5c-0.2,1.6-0.3,3.2-0.4,4.8c-0.1,0.7-0.1,1.4-0.2,2.1
		c-0.1,1.4-0.2,2.8-0.3,4.2c0,0.5-0.1,0.9-0.1,1.4c-0.1,1.8-0.2,3.7-0.2,5.5c0,0.5,0,1,0,1.5c0,1.9-0.1,3.9-0.1,5.8s0,3.9,0.1,5.8
		c0,0.5,0,1,0,1.5c0.1,1.8,0.1,3.7,0.2,5.5c0,0.5,0.1,0.9,0.1,1.4c0.1,1.4,0.2,2.8,0.3,4.2c0.1,0.7,0.1,1.4,0.2,2.1
		c0.1,1.6,0.3,3.2,0.4,4.8c0.1,0.8,0.2,1.7,0.3,2.5c0.1,1,0.2,2,0.3,3c0.1,0.9,0.2,1.7,0.3,2.6h220.4h0v137.3h66.8V204.1v0h220.4
		c0.1-0.9,0.2-1.7,0.3-2.6c0.1-1,0.2-2,0.3-3c0.1-0.8,0.2-1.7,0.3-2.5c0.2-1.6,0.3-3.2,0.4-4.8c0.1-0.7,0.1-1.4,0.2-2.1
		c0.1-1.4,0.2-2.8,0.3-4.2c0-0.5,0.1-0.9,0.1-1.4c0.1-1.8,0.2-3.7,0.2-5.5c0-0.5,0-1,0-1.5c0-1.9,0.1-3.9,0.1-5.8s0-3.9-0.1-5.8
		c0-0.5,0-1,0-1.5C511.8,161.5,511.8,159.7,511.7,157.8z"/>
	<path id="XMLID_1545_" class="st2" d="M354.3,237.4h-31.5l0,0l103.9,103.9h20.1c0.5-0.6,1.1-1.2,1.6-1.8c0,0,0,0,0,0
		c1.2-1.4,2.4-2.8,3.6-4.2L354.3,237.4z"/>
	<polygon id="XMLID_1546_" class="st2" points="189.2,237.4 189.2,237.4 85.3,341.3 116.8,341.3 189.2,268.9 	"/>
	<polygon id="XMLID_1547_" class="st2" points="189.2,103.9 189.2,103.9 85.3,0 53.9,0 59.9,6.1 157.7,103.9 	"/>
	<polygon id="XMLID_1548_" class="st2" points="322.8,103.9 322.8,103.9 426.7,0 395.2,0 322.8,72.4 	"/>
</g>
</svg>
