<?xml version="1.0" encoding="utf-8"?>
<!-- Generator: Adobe Illustrator 21.1.0, SVG Export Plug-In . SVG Version: 6.00 Build 0)  -->
<svg version="1.1" id="Capa_1" xmlns="http://www.w3.org/2000/svg" xmlns:xlink="http://www.w3.org/1999/xlink" x="0px" y="0px"
	 viewBox="0 0 512 393" style="enable-background:new 0 0 512 393;" xml:space="preserve">
<style type="text/css">
	.st0{fill:#E8E8E8;}
</style>
<g>
	<g>
		<g>
			<path class="st0" d="M392.9,174.7H209.6v61.1h111.9c-16.7,53.1-66.3,91.7-125,91.7c-72.3,0-131-58.6-131-131
				c0-72.3,58.6-131,131-131c36.4,0,69.4,14.9,93.1,38.9L334,56.2C298.5,21.5,250,0,196.5,0C88,0,0,88,0,196.5S88,393,196.5,393
				c95,0,178.3-67.5,196.5-157.2L392.9,174.7L392.9,174.7L392.9,174.7z"/>
			<polygon class="st0" points="512,174.6 474.5,174.6 474.5,137.1 442.3,137.1 442.3,174.6 404.8,174.6 404.8,206.7 442.3,206.7 
				442.3,244.2 474.5,244.2 474.5,206.7 512,206.7 			"/>
		</g>
	</g>
</g>
</svg>
