<?xml version="1.0" encoding="utf-8"?>
<!-- Generator: Adobe Illustrator 21.1.0, SVG Export Plug-In . SVG Version: 6.00 Build 0)  -->
<svg version="1.1" id="Layer_1" xmlns="http://www.w3.org/2000/svg" xmlns:xlink="http://www.w3.org/1999/xlink" x="0px" y="0px"
	 viewBox="0 0 512 512" style="enable-background:new 0 0 512 512;" xml:space="preserve">
<style type="text/css">
	.st0{fill:#E8E8E8;}
</style>
<g>
	<path class="st0" d="M370.7,0H141.3C63.4,0,0,63.4,0,141.3v229.4C0,448.6,63.4,512,141.3,512h229.4c77.9,0,141.3-63.4,141.3-141.3
		V141.3C512,63.4,448.6,0,370.7,0z M466.6,370.7c0,52.9-43,95.9-95.9,95.9H141.3c-52.9,0-95.9-43-95.9-95.9V141.3
		c0-52.9,43-95.9,95.9-95.9h229.4c52.9,0,95.9,43,95.9,95.9V370.7L466.6,370.7z"/>
	<path class="st0" d="M256,124.1c-72.7,0-131.9,59.2-131.9,131.9S183.3,387.9,256,387.9S387.9,328.7,387.9,256
		S328.7,124.1,256,124.1z M256,342.5c-47.7,0-86.5-38.8-86.5-86.5s38.8-86.5,86.5-86.5s86.5,38.8,86.5,86.5S303.7,342.5,256,342.5z"
		/>
	<path class="st0" d="M393.5,85.6c-8.8,0-17.4,3.5-23.5,9.8c-6.2,6.2-9.8,14.8-9.8,23.6s3.6,17.4,9.8,23.6
		c6.2,6.2,14.8,9.8,23.5,9.8c8.8,0,17.4-3.6,23.6-9.8s9.8-14.8,9.8-23.6s-3.5-17.4-9.8-23.6C410.8,89.1,402.2,85.6,393.5,85.6z"/>
</g>
</svg>
