<?xml version="1.0" encoding="utf-8"?>
<!-- Generator: Adobe Illustrator 21.1.0, SVG Export Plug-In . SVG Version: 6.00 Build 0)  -->
<svg version="1.1" id="Capa_1" xmlns="http://www.w3.org/2000/svg" xmlns:xlink="http://www.w3.org/1999/xlink" x="0px" y="0px"
	 viewBox="0 0 512 400.4" style="enable-background:new 0 0 512 400.4;" xml:space="preserve">
<style type="text/css">
	.st0{fill:#E8E8E8;}
</style>
<g>
	<path class="st0" d="M138.1,388.9c15.4,15.4,40.3,15.4,55.6,0l190.4-190.4c5.5-5.5,9.7-12,12.4-18.9c19.1,5.4,37.7,8.2,54.1,8.1
		c40.6-0.2,54-18,58.5-28.6c4.4-10.5,7.6-32.6-20.9-61.6c-0.3-0.3-0.6-0.6-0.9-0.9c-17.7-17.7-43.3-34-72.4-46.1
		c-5.4-2.2-10.7-4.2-16-6.1v-0.3c-0.3-23.3-19.1-42.2-42.5-42.5L242.3,0c-15.1-0.2-29.6,5.7-40.3,16.4L11.5,206.8
		c-15.4,15.4-15.4,40.3,0,55.6L138.1,388.9z M284.9,68.1c12.7-12.7,33.3-12.7,46.1,0c7.6,7.6,10.6,18,9.1,27.8
		c12.5,8.8,27.4,17,43.4,23.7c5.7,2.3,11.1,4.4,16.4,6.2l-0.6-45.8c0.9,0.4,1.8,0.7,2.7,1.2c24.9,10.4,47.3,24.5,61.7,38.9
		c0.2,0.2,0.4,0.4,0.6,0.6c13.7,14,15.1,22.9,14,25.7c-3.6,8.5-41.9,16.1-100.2-8.2c-17-7.1-33-16-45.9-25.5
		c-0.4,0.5-0.9,1.1-1.4,1.6c-12.7,12.7-33.3,12.7-46.1,0C272.1,101.5,272.1,80.9,284.9,68.1z"/>
</g>
</svg>
