<?xml version="1.0" encoding="utf-8"?>
<!-- Generator: Adobe Illustrator 21.1.0, SVG Export Plug-In . SVG Version: 6.00 Build 0)  -->
<svg version="1.1" id="Layer_1" xmlns="http://www.w3.org/2000/svg" xmlns:xlink="http://www.w3.org/1999/xlink" x="0px" y="0px"
	 viewBox="0 0 512 341.3" style="enable-background:new 0 0 512 341.3;" xml:space="preserve">
<style type="text/css">
	.st0{fill:#D80027;}
	.st1{fill:#F0F0F0;}
</style>
<rect id="XMLID_1495_" class="st0" width="512" height="341.3"/>
<g id="XMLID_942_">
	<polygon id="XMLID_1940_" class="st1" points="321.3,111.3 344.3,143 381.6,130.9 358.5,162.6 381.5,194.3 344.3,182.2 
		321.2,213.9 321.2,174.7 284,162.6 321.3,150.5 	"/>
	<path id="XMLID_944_" class="st1" d="M258.5,241.8c-43.8,0-79.3-35.5-79.3-79.3s35.5-79.3,79.3-79.3c13.6,0,26.5,3.5,37.7,9.5
		C278.6,75.7,254.5,65,228,65c-53.9,0-97.6,43.7-97.6,97.6s43.7,97.6,97.6,97.6c26.5,0,50.6-10.6,68.2-27.8
		C285,238.4,272.1,241.8,258.5,241.8z"/>
</g>
</svg>
