<?xml version="1.0" encoding="utf-8"?>
<!-- Generator: Adobe Illustrator 21.1.0, SVG Export Plug-In . SVG Version: 6.00 Build 0)  -->
<svg version="1.1" id="Capa_1" xmlns="http://www.w3.org/2000/svg" xmlns:xlink="http://www.w3.org/1999/xlink" x="0px" y="0px"
	 viewBox="0 0 512.1 416" style="enable-background:new 0 0 512.1 416;" xml:space="preserve">
<style type="text/css">
	.st0{fill:#E8E8E8;}
</style>
<g>
	<path class="st0" d="M512.1,49.2c-18.8,8.4-39.1,14-60.3,16.5c21.7-13,38.3-33.6,46.2-58.1c-20.3,12-42.8,20.8-66.7,25.5
		C412.1,12.7,384.8,0,354.6,0c-58,0-105,47-105,105c0,8.2,0.9,16.3,2.7,23.9C165,124.5,87.6,82.7,35.8,19.1
		c-9,15.5-14.2,33.6-14.2,52.8c0,36.4,18.5,68.6,46.7,87.4c-17.2-0.5-33.4-5.3-47.6-13.1c0,0.4,0,0.9,0,1.3
		c0,50.9,36.2,93.3,84.3,103c-8.8,2.4-18.1,3.7-27.7,3.7c-6.8,0-13.3-0.7-19.8-1.9c13.4,41.7,52.2,72.1,98.1,72.9
		c-35.9,28.2-81.2,45-130.5,45c-8.5,0-16.8-0.5-25.1-1.5c46.6,30,101.8,47.3,161.1,47.3C354.3,416,460,255.9,460,117.1
		c0-4.6-0.1-9.1-0.3-13.6C480.2,88.8,498,70.3,512.1,49.2z"/>
</g>
</svg>
