<svg width="512" height="512"><path fill="#FFF" d="M494.693 100.848L339.561 255.997l155.133 155.142c23.075 23.084 23.075 60.477 0 83.562-11.529 11.529-26.646 17.298-41.754 17.298-15.134 0-30.251-5.76-41.772-17.298l-155.167-155.16-155.155 155.157c-11.528 11.529-26.646 17.299-41.767 17.299-15.118 0-30.225-5.761-41.763-17.299-23.075-23.073-23.075-60.468 0-83.562l155.128-155.141L17.307 100.848c-23.075-23.075-23.075-60.477 0-83.552 23.071-23.058 60.451-23.058 83.53 0l155.162 155.149 155.15-155.149c23.084-23.058 60.469-23.058 83.535 0 23.085 23.075 23.085 60.477.009 83.552z"/></svg>